# xmcd
#
# Track frame offsets:
#	150
#	21733
#	62755
#	86066
#	106301
#	119189
#	135347
#	151233
#	168947
#	188385
#	215136
#	225303
#	242539
#	267194
#	288712
#	322612
#
# Disc length: 4609 seconds
#
# Revision: 1
# Processed by: cddbd v1.5.2PL0 Copyright (c) Steve Scherf et al.
# Submitted via: audiograbber 1.83.01
#
DISCID=db11ff10
DTITLE=Lynyrd Skynyrd - Greatest Hits
DYEAR=1900
DGENRE=
TTITLE0=Sweet Home Alabama
TTITLE1=Freebird
TTITLE2=Saturday Night Special
TTITLE3=Gimme Three Steps
TTITLE4=Double Trouble
TTITLE5=What´s your Name
TTITLE6=Gimme back my Bullets
TTITLE7=I ain´t the One
TTITLE8=Whiskey Rock a Roller
TTITLE9=Simple Man
TTITLE10=Down South Junkin´
TTITLE11=You got that Right
TTITLE12=On then Hunt
TTITLE13=Workin
TTITLE14=Tuesday´s Gone
TTITLE15=Call me the Breeze
EXTD=
EXTT0=
EXTT1=
EXTT2=
EXTT3=
EXTT4=
EXTT5=
EXTT6=
EXTT7=
EXTT8=
EXTT9=
EXTT10=
EXTT11=
EXTT12=
EXTT13=
EXTT14=
EXTT15=
PLAYORDER=
